<svg width="101" height="101" viewBox="0 0 101 101" fill="none" xmlns="http://www.w3.org/2000/svg">
<path d="M50.8123 56.134C52.5194 56.134 54.2099 55.7978 55.7871 55.1445C57.3644 54.4912 58.7975 53.5336 60.0046 52.3264C61.2118 51.1193 62.1694 49.6862 62.8227 48.1089C63.476 46.5317 63.8123 44.8412 63.8123 43.134C63.8123 41.4269 63.476 39.7364 62.8227 38.1591C62.1694 36.5819 61.2118 35.1488 60.0046 33.9416C58.7975 32.7345 57.3644 31.7769 55.7871 31.1236C54.2099 30.4703 52.5194 30.134 50.8123 30.134C47.3644 30.134 44.0578 31.5037 41.6199 33.9416C39.1819 36.3796 37.8123 39.6862 37.8123 43.134C37.8123 46.5819 39.1819 49.8885 41.6199 52.3264C44.0578 54.7644 47.3644 56.134 50.8123 56.134Z" stroke="white" stroke-width="6"/>
<path d="M15.8955 35.5507C24.1038 -0.532625 77.5622 -0.490957 85.7288 35.5924C90.5205 56.759 77.3538 74.6757 65.8122 85.7591C61.7792 89.6488 56.3945 91.8223 50.7913 91.8223C45.1882 91.8223 39.8035 89.6488 35.7705 85.7591C24.2705 74.6757 11.1038 56.7174 15.8955 35.5507Z" stroke="white" stroke-width="6"/>
</svg>
