<svg width="150" height="48" viewBox="0 0 150 48" fill="none" xmlns="http://www.w3.org/2000/svg">
<rect width="48" height="48" rx="8" fill="#A6151C"/>
<path d="M39.1334 18.2999V29.6999C39.1334 31.5666 38.1334 33.2999 36.5168 34.2499L26.6168 39.9666C25.0001 40.8999 23.0001 40.8999 21.3668 39.9666L11.4668 34.2499C10.6697 33.7878 10.0083 33.1241 9.54902 32.3254C9.08971 31.5267 8.84867 30.6212 8.8501 29.6999V18.2999C8.8501 16.4333 9.8501 14.6999 11.4668 13.7499L21.3668 8.03325C22.9834 7.09992 24.9834 7.09992 26.6168 8.03325L36.5168 13.7499C38.1334 14.6999 39.1334 16.4166 39.1334 18.2999Z" fill="white" fill-opacity="0.3" stroke="white" stroke-width="1.5" stroke-linecap="round" stroke-linejoin="round"/>
<path d="M24 15.25C19.1674 15.25 15.25 19.1674 15.25 24C15.25 28.8326 19.1674 32.75 24 32.75C28.8326 32.75 32.75 28.8326 32.75 24C32.75 19.1674 28.8326 15.25 24 15.25ZM26.9034 27.8669C26.7658 28.0038 26.6215 28.1474 26.5043 28.2649C26.3988 28.3708 26.3244 28.5013 26.2866 28.6428C26.2334 28.8425 26.1903 29.0443 26.1183 29.238L25.5048 30.891C25.0193 30.9968 24.5169 31.0565 24 31.0565V30.0904C24.0596 29.6452 23.7304 28.8111 23.2016 28.2822C22.9899 28.0705 22.871 27.7833 22.871 27.4838V26.3544C22.871 25.9437 22.6497 25.5662 22.2902 25.3675C21.7832 25.087 21.062 24.6951 20.5681 24.4463C20.1631 24.2424 19.7884 23.9827 19.4514 23.6789L19.4232 23.6535C19.1822 23.436 18.9683 23.1903 18.786 22.9218C18.455 22.4359 17.9159 21.6368 17.5656 21.1174C18.2878 19.5121 19.5894 18.2229 21.2067 17.5225L22.0538 17.9463C22.4292 18.134 22.871 17.8612 22.871 17.4414V17.0427C23.1529 16.9972 23.4397 16.9682 23.7315 16.9573L24.73 17.9558C24.9505 18.1763 24.9505 18.5337 24.73 18.7542L24.5645 18.9194L24.1997 19.2842C24.0896 19.3943 24.0896 19.5731 24.1997 19.6832L24.3652 19.8487C24.4753 19.9588 24.4753 20.1377 24.3652 20.2477L24.0829 20.53C24.0299 20.5829 23.9581 20.6126 23.8832 20.6126H23.566C23.4926 20.6126 23.4221 20.6411 23.3692 20.6926L23.0192 21.0331C22.9763 21.0749 22.9477 21.1292 22.9377 21.1883C22.9277 21.2473 22.9367 21.308 22.9634 21.3616L23.5135 22.462C23.6073 22.6497 23.4708 22.8706 23.2612 22.8706H23.0622C22.9941 22.8706 22.9285 22.8459 22.8773 22.8015L22.5499 22.5171C22.4758 22.4528 22.3863 22.4089 22.2901 22.3897C22.1939 22.3706 22.0943 22.3768 22.0013 22.4077L20.9015 22.7743C20.8176 22.8023 20.7445 22.856 20.6928 22.9278C20.6411 22.9996 20.6132 23.0859 20.6133 23.1744C20.6133 23.3342 20.7036 23.4799 20.8465 23.5516L21.2374 23.747C21.5694 23.9132 21.9356 23.9996 22.3068 23.9996C22.678 23.9996 23.1038 24.9625 23.4358 25.1287H25.7909C26.0905 25.1287 26.3773 25.2476 26.5894 25.4593L27.0724 25.9423C27.2742 26.1442 27.3875 26.4179 27.3875 26.7033C27.3874 26.9196 27.3446 27.1337 27.2615 27.3334C27.1784 27.5331 27.0567 27.7144 26.9034 27.8669ZM29.9627 24.6439C29.7584 24.5927 29.5802 24.4675 29.4635 24.2921L28.8291 23.3406C28.7363 23.2015 28.6867 23.0381 28.6867 22.871C28.6867 22.7038 28.7363 22.5404 28.8291 22.4014L29.5203 21.3648C29.6021 21.2423 29.7143 21.1428 29.8463 21.0772L30.3042 20.8482C30.7813 21.798 31.0565 22.8664 31.0565 24C31.0565 24.3059 31.0303 24.6054 30.9922 24.9011L29.9627 24.6439Z" fill="white"/>
<path d="M60.4057 31V10H71.1457C73.9057 10 75.9657 10.51 77.3257 11.53C78.6857 12.53 79.3657 13.85 79.3657 15.49C79.3657 16.57 79.0757 17.52 78.4957 18.34C77.9357 19.14 77.1357 19.78 76.0957 20.26C75.0757 20.72 73.8557 20.95 72.4357 20.95L73.0357 19.51C74.5157 19.51 75.8057 19.74 76.9057 20.2C78.0057 20.64 78.8557 21.29 79.4557 22.15C80.0757 22.99 80.3857 24.02 80.3857 25.24C80.3857 27.06 79.6457 28.48 78.1657 29.5C76.7057 30.5 74.5657 31 71.7457 31H60.4057ZM66.2857 26.71H71.2657C72.2857 26.71 73.0557 26.54 73.5757 26.2C74.1157 25.84 74.3857 25.3 74.3857 24.58C74.3857 23.86 74.1157 23.33 73.5757 22.99C73.0557 22.63 72.2857 22.45 71.2657 22.45H65.8657V18.34H70.3657C71.3657 18.34 72.1157 18.17 72.6157 17.83C73.1157 17.49 73.3657 16.98 73.3657 16.3C73.3657 15.62 73.1157 15.12 72.6157 14.8C72.1157 14.46 71.3657 14.29 70.3657 14.29H66.2857V26.71ZM80.9423 31L90.2123 10H96.0623L105.362 31H99.1823L91.9223 12.91H94.2623L87.0023 31H80.9423ZM86.0123 26.92L87.5423 22.54H97.8023L99.3323 26.92H86.0123ZM111.038 31V22.12L112.418 25.69L103.028 10H109.298L116.078 21.37H112.448L119.258 10H125.018L115.658 25.69L116.978 22.12V31H111.038ZM122.69 31L131.96 10H137.81L147.11 31H140.93L133.67 12.91H136.01L128.75 31H122.69ZM127.76 26.92L129.29 22.54H139.55L141.08 26.92H127.76Z" fill="#2A3245"/>
<path d="M58.9499 41V36.8H60.9179C61.4219 36.8 61.8059 36.9 62.0699 37.1C62.3339 37.296 62.4659 37.56 62.4659 37.892C62.4659 38.116 62.4139 38.308 62.3099 38.468C62.2059 38.624 62.0659 38.746 61.8899 38.834C61.7179 38.918 61.5299 38.96 61.3259 38.96L61.4339 38.744C61.6699 38.744 61.8819 38.788 62.0699 38.876C62.2579 38.96 62.4059 39.084 62.5139 39.248C62.6259 39.412 62.6819 39.616 62.6819 39.86C62.6819 40.22 62.5439 40.5 62.2679 40.7C61.9919 40.9 61.5819 41 61.0379 41H58.9499ZM59.7299 40.388H60.9899C61.2819 40.388 61.5059 40.34 61.6619 40.244C61.8179 40.148 61.8959 39.994 61.8959 39.782C61.8959 39.574 61.8179 39.422 61.6619 39.326C61.5059 39.226 61.2819 39.176 60.9899 39.176H59.6699V38.57H60.8339C61.1059 38.57 61.3139 38.522 61.4579 38.426C61.6059 38.33 61.6799 38.186 61.6799 37.994C61.6799 37.798 61.6059 37.652 61.4579 37.556C61.3139 37.46 61.1059 37.412 60.8339 37.412H59.7299V40.388ZM65.7204 41.06C65.1444 41.06 64.6924 40.898 64.3644 40.574C64.0404 40.25 63.8784 39.782 63.8784 39.17V36.8H64.6584V39.14C64.6584 39.572 64.7504 39.886 64.9344 40.082C65.1224 40.278 65.3864 40.376 65.7264 40.376C66.0664 40.376 66.3284 40.278 66.5124 40.082C66.6964 39.886 66.7884 39.572 66.7884 39.14V36.8H67.5564V39.17C67.5564 39.782 67.3924 40.25 67.0644 40.574C66.7404 40.898 66.2924 41.06 65.7204 41.06ZM69.0488 41V36.8H70.7768C71.1488 36.8 71.4668 36.86 71.7308 36.98C71.9988 37.1 72.2048 37.272 72.3488 37.496C72.4928 37.72 72.5648 37.986 72.5648 38.294C72.5648 38.602 72.4928 38.868 72.3488 39.092C72.2048 39.312 71.9988 39.482 71.7308 39.602C71.4668 39.718 71.1488 39.776 70.7768 39.776H69.4808L69.8288 39.422V41H69.0488ZM71.7968 41L70.7348 39.476H71.5688L72.6368 41H71.7968ZM69.8288 39.506L69.4808 39.134H70.7408C71.0848 39.134 71.3428 39.06 71.5148 38.912C71.6908 38.764 71.7788 38.558 71.7788 38.294C71.7788 38.026 71.6908 37.82 71.5148 37.676C71.3428 37.532 71.0848 37.46 70.7408 37.46H69.4808L69.8288 37.076V39.506ZM75.1394 41.06C74.8114 41.06 74.4974 41.014 74.1974 40.922C73.8974 40.826 73.6594 40.704 73.4834 40.556L73.7534 39.95C73.9214 40.082 74.1294 40.192 74.3774 40.28C74.6254 40.368 74.8794 40.412 75.1394 40.412C75.3594 40.412 75.5374 40.388 75.6734 40.34C75.8094 40.292 75.9094 40.228 75.9734 40.148C76.0374 40.064 76.0694 39.97 76.0694 39.866C76.0694 39.738 76.0234 39.636 75.9314 39.56C75.8394 39.48 75.7194 39.418 75.5714 39.374C75.4274 39.326 75.2654 39.282 75.0854 39.242C74.9094 39.202 74.7314 39.156 74.5514 39.104C74.3754 39.048 74.2134 38.978 74.0654 38.894C73.9214 38.806 73.8034 38.69 73.7114 38.546C73.6194 38.402 73.5734 38.218 73.5734 37.994C73.5734 37.766 73.6334 37.558 73.7534 37.37C73.8774 37.178 74.0634 37.026 74.3114 36.914C74.5634 36.798 74.8814 36.74 75.2654 36.74C75.5174 36.74 75.7674 36.772 76.0154 36.836C76.2634 36.9 76.4794 36.992 76.6634 37.112L76.4174 37.718C76.2294 37.606 76.0354 37.524 75.8354 37.472C75.6354 37.416 75.4434 37.388 75.2594 37.388C75.0434 37.388 74.8674 37.414 74.7314 37.466C74.5994 37.518 74.5014 37.586 74.4374 37.67C74.3774 37.754 74.3474 37.85 74.3474 37.958C74.3474 38.086 74.3914 38.19 74.4794 38.27C74.5714 38.346 74.6894 38.406 74.8334 38.45C74.9814 38.494 75.1454 38.538 75.3254 38.582C75.5054 38.622 75.6834 38.668 75.8594 38.72C76.0394 38.772 76.2014 38.84 76.3454 38.924C76.4934 39.008 76.6114 39.122 76.6994 39.266C76.7914 39.41 76.8374 39.592 76.8374 39.812C76.8374 40.036 76.7754 40.244 76.6514 40.436C76.5314 40.624 76.3454 40.776 76.0934 40.892C75.8414 41.004 75.5234 41.06 75.1394 41.06ZM77.4169 41L79.3069 36.8H80.0749L81.9709 41H81.1549L79.5289 37.214H79.8409L78.2209 41H77.4169ZM78.2869 40.028L78.4969 39.416H80.7649L80.9749 40.028H78.2869ZM84.3692 41L86.2592 36.8H87.0272L88.9232 41H88.1072L86.4812 37.214H86.7932L85.1732 41H84.3692ZM85.2392 40.028L85.4492 39.416H87.7172L87.9272 40.028H85.2392ZM90.5714 38.732H92.6654V39.392H90.5714V38.732ZM90.6374 41H89.8574V36.8H92.9234V37.454H90.6374V41ZM94.7977 38.546H96.8857V39.188H94.7977V38.546ZM94.8577 40.346H97.2277V41H94.0777V36.8H97.1437V37.454H94.8577V40.346ZM99.3492 41V37.46H97.9572V36.8H101.521V37.46H100.129V41H99.3492ZM105.597 41V39.338L105.771 39.818L103.947 36.8H104.781L106.245 39.23H105.777L107.253 36.8H108.021L106.197 39.818L106.377 39.338V41H105.597ZM110.718 41.06C110.39 41.06 110.088 41.006 109.812 40.898C109.536 40.79 109.296 40.64 109.092 40.448C108.888 40.252 108.73 40.024 108.618 39.764C108.506 39.5 108.45 39.212 108.45 38.9C108.45 38.588 108.506 38.302 108.618 38.042C108.73 37.778 108.888 37.55 109.092 37.358C109.296 37.162 109.536 37.01 109.812 36.902C110.088 36.794 110.388 36.74 110.712 36.74C111.04 36.74 111.34 36.794 111.612 36.902C111.888 37.01 112.128 37.162 112.332 37.358C112.536 37.55 112.694 37.778 112.806 38.042C112.918 38.302 112.974 38.588 112.974 38.9C112.974 39.212 112.918 39.5 112.806 39.764C112.694 40.028 112.536 40.256 112.332 40.448C112.128 40.64 111.888 40.79 111.612 40.898C111.34 41.006 111.042 41.06 110.718 41.06ZM110.712 40.376C110.924 40.376 111.12 40.34 111.3 40.268C111.48 40.196 111.636 40.094 111.768 39.962C111.9 39.826 112.002 39.67 112.074 39.494C112.15 39.314 112.188 39.116 112.188 38.9C112.188 38.684 112.15 38.488 112.074 38.312C112.002 38.132 111.9 37.976 111.768 37.844C111.636 37.708 111.48 37.604 111.3 37.532C111.12 37.46 110.924 37.424 110.712 37.424C110.5 37.424 110.304 37.46 110.124 37.532C109.948 37.604 109.792 37.708 109.656 37.844C109.524 37.976 109.42 38.132 109.344 38.312C109.272 38.488 109.236 38.684 109.236 38.9C109.236 39.112 109.272 39.308 109.344 39.488C109.42 39.668 109.524 39.826 109.656 39.962C109.788 40.094 109.944 40.196 110.124 40.268C110.304 40.34 110.5 40.376 110.712 40.376ZM111.294 36.392C111.194 36.392 111.108 36.36 111.036 36.296C110.968 36.228 110.934 36.14 110.934 36.032C110.934 35.924 110.968 35.836 111.036 35.768C111.108 35.7 111.194 35.666 111.294 35.666C111.394 35.666 111.478 35.7 111.546 35.768C111.618 35.836 111.654 35.924 111.654 36.032C111.654 36.14 111.618 36.228 111.546 36.296C111.478 36.36 111.394 36.392 111.294 36.392ZM110.13 36.392C110.03 36.392 109.944 36.36 109.872 36.296C109.804 36.228 109.77 36.14 109.77 36.032C109.77 35.924 109.804 35.836 109.872 35.768C109.944 35.7 110.03 35.666 110.13 35.666C110.23 35.666 110.314 35.7 110.382 35.768C110.454 35.836 110.49 35.924 110.49 36.032C110.49 36.14 110.454 36.228 110.382 36.296C110.314 36.36 110.23 36.392 110.13 36.392ZM114.201 41V36.8H114.843L117.477 40.034H117.159V36.8H117.933V41H117.291L114.657 37.766H114.975V41H114.201ZM120.178 38.546H122.266V39.188H120.178V38.546ZM120.238 40.346H122.608V41H119.458V36.8H122.524V37.454H120.238V40.346ZM124.73 41V37.46H123.338V36.8H126.902V37.46H125.51V41H124.73ZM127.887 41V36.8H128.667V41H127.887ZM128.277 36.386C128.153 36.386 128.051 36.346 127.971 36.266C127.891 36.186 127.851 36.084 127.851 35.96C127.851 35.836 127.891 35.734 127.971 35.654C128.051 35.574 128.153 35.534 128.277 35.534C128.397 35.534 128.497 35.574 128.577 35.654C128.661 35.734 128.703 35.836 128.703 35.96C128.703 36.084 128.661 36.186 128.577 36.266C128.497 36.346 128.397 36.386 128.277 36.386ZM130.203 41V36.8H130.845L132.681 39.866H132.345L134.151 36.8H134.793L134.799 41H134.061L134.055 37.958H134.211L132.675 40.52H132.327L130.767 37.958H130.947V41H130.203ZM137.798 41L139.688 36.8H140.456L142.352 41H141.536L139.91 37.214H140.222L138.602 41H137.798ZM138.668 40.028L138.878 39.416H141.146L141.356 40.028H138.668ZM145.189 41.06C144.861 41.06 144.559 41.008 144.283 40.904C144.011 40.796 143.773 40.646 143.569 40.454C143.365 40.258 143.207 40.028 143.095 39.764C142.983 39.5 142.927 39.212 142.927 38.9C142.927 38.588 142.983 38.3 143.095 38.036C143.207 37.772 143.365 37.544 143.569 37.352C143.777 37.156 144.019 37.006 144.295 36.902C144.571 36.794 144.873 36.74 145.201 36.74C145.557 36.74 145.877 36.798 146.161 36.914C146.449 37.03 146.691 37.2 146.887 37.424L146.395 37.904C146.231 37.74 146.053 37.62 145.861 37.544C145.673 37.464 145.465 37.424 145.237 37.424C145.017 37.424 144.813 37.46 144.625 37.532C144.437 37.604 144.275 37.706 144.139 37.838C144.003 37.97 143.897 38.126 143.821 38.306C143.749 38.486 143.713 38.684 143.713 38.9C143.713 39.112 143.749 39.308 143.821 39.488C143.897 39.668 144.003 39.826 144.139 39.962C144.275 40.094 144.435 40.196 144.619 40.268C144.803 40.34 145.007 40.376 145.231 40.376C145.439 40.376 145.639 40.344 145.831 40.28C146.027 40.212 146.213 40.1 146.389 39.944L146.833 40.526C146.613 40.702 146.357 40.836 146.065 40.928C145.777 41.016 145.485 41.06 145.189 41.06ZM146.095 40.424V38.852H146.833V40.526L146.095 40.424ZM145.147 36.5C144.855 36.5 144.611 36.422 144.415 36.266C144.223 36.11 144.121 35.9 144.109 35.636H144.601C144.609 35.776 144.665 35.886 144.769 35.966C144.873 36.046 144.999 36.086 145.147 36.086C145.295 36.086 145.421 36.046 145.525 35.966C145.633 35.886 145.689 35.776 145.693 35.636H146.185C146.173 35.9 146.069 36.11 145.873 36.266C145.681 36.422 145.439 36.5 145.147 36.5ZM148.262 41V36.8H149.042V41H148.262Z" fill="#2A3245"/>
</svg>
