<svg width="138" height="40" viewBox="0 0 138 40" fill="none" xmlns="http://www.w3.org/2000/svg">
<path d="M35.6334 14.2999V25.6999C35.6334 27.5666 34.6334 29.2999 33.0168 30.2499L23.1168 35.9666C21.5001 36.8999 19.5001 36.8999 17.8668 35.9666L7.96677 30.2499C7.16973 29.7878 6.50833 29.1241 6.04902 28.3254C5.58971 27.5267 5.34867 26.6212 5.3501 25.6999V14.2999C5.3501 12.4333 6.3501 10.6999 7.96677 9.74992L17.8668 4.03325C19.4834 3.09992 21.4834 3.09992 23.1168 4.03325L33.0168 9.74992C34.6334 10.6999 35.6334 12.4166 35.6334 14.2999Z" fill="white" fill-opacity="0.3" stroke="white" stroke-width="1.5" stroke-linecap="round" stroke-linejoin="round"/>
<path d="M20.5 11.25C15.6674 11.25 11.75 15.1674 11.75 20C11.75 24.8326 15.6674 28.75 20.5 28.75C25.3326 28.75 29.25 24.8326 29.25 20C29.25 15.1674 25.3326 11.25 20.5 11.25ZM23.4034 23.8669C23.2658 24.0038 23.1215 24.1474 23.0043 24.2649C22.8988 24.3708 22.8244 24.5013 22.7866 24.6428C22.7334 24.8425 22.6903 25.0443 22.6183 25.238L22.0048 26.891C21.5193 26.9968 21.0169 27.0565 20.5 27.0565V26.0904C20.5596 25.6452 20.2304 24.8111 19.7016 24.2822C19.4899 24.0705 19.371 23.7833 19.371 23.4838V22.3544C19.371 21.9437 19.1497 21.5662 18.7902 21.3675C18.2832 21.087 17.562 20.6951 17.0681 20.4463C16.6631 20.2424 16.2884 19.9827 15.9514 19.6789L15.9232 19.6535C15.6822 19.436 15.4683 19.1903 15.286 18.9218C14.955 18.4359 14.4159 17.6368 14.0656 17.1174C14.7878 15.5121 16.0894 14.2229 17.7067 13.5225L18.5538 13.9463C18.9292 14.134 19.371 13.8612 19.371 13.4414V13.0427C19.6529 12.9972 19.9397 12.9682 20.2315 12.9573L21.23 13.9558C21.4505 14.1763 21.4505 14.5337 21.23 14.7542L21.0645 14.9194L20.6997 15.2842C20.5896 15.3943 20.5896 15.5731 20.6997 15.6832L20.8652 15.8487C20.9753 15.9588 20.9753 16.1377 20.8652 16.2477L20.5829 16.53C20.5299 16.5829 20.4581 16.6126 20.3832 16.6126H20.066C19.9926 16.6126 19.9221 16.6411 19.8692 16.6926L19.5192 17.0331C19.4763 17.0749 19.4477 17.1292 19.4377 17.1883C19.4277 17.2473 19.4367 17.308 19.4634 17.3616L20.0135 18.462C20.1073 18.6497 19.9708 18.8706 19.7612 18.8706H19.5622C19.4941 18.8706 19.4285 18.8459 19.3773 18.8015L19.0499 18.5171C18.9758 18.4528 18.8863 18.4089 18.7901 18.3897C18.6939 18.3706 18.5943 18.3768 18.5013 18.4077L17.4015 18.7743C17.3176 18.8023 17.2445 18.856 17.1928 18.9278C17.1411 18.9996 17.1132 19.0859 17.1133 19.1744C17.1133 19.3342 17.2036 19.4799 17.3465 19.5516L17.7374 19.747C18.0694 19.9132 18.4356 19.9996 18.8068 19.9996C19.178 19.9996 19.6038 20.9625 19.9358 21.1287H22.2909C22.5905 21.1287 22.8773 21.2476 23.0894 21.4593L23.5724 21.9423C23.7742 22.1442 23.8875 22.4179 23.8875 22.7033C23.8874 22.9196 23.8446 23.1337 23.7615 23.3334C23.6784 23.5331 23.5567 23.7144 23.4034 23.8669ZM26.4627 20.6439C26.2584 20.5927 26.0802 20.4675 25.9635 20.2921L25.3291 19.3406C25.2363 19.2015 25.1867 19.0381 25.1867 18.871C25.1867 18.7038 25.2363 18.5404 25.3291 18.4014L26.0203 17.3648C26.1021 17.2423 26.2143 17.1428 26.3463 17.0772L26.8042 16.8482C27.2813 17.798 27.5565 18.8664 27.5565 20C27.5565 20.3059 27.5303 20.6054 27.4922 20.9011L26.4627 20.6439Z" fill="white"/>
<path d="M47.9057 27V6H58.6457C61.4057 6 63.4657 6.51 64.8257 7.53C66.1857 8.53 66.8657 9.85 66.8657 11.49C66.8657 12.57 66.5757 13.52 65.9957 14.34C65.4357 15.14 64.6357 15.78 63.5957 16.26C62.5757 16.72 61.3557 16.95 59.9357 16.95L60.5357 15.51C62.0157 15.51 63.3057 15.74 64.4057 16.2C65.5057 16.64 66.3557 17.29 66.9557 18.15C67.5757 18.99 67.8857 20.02 67.8857 21.24C67.8857 23.06 67.1457 24.48 65.6657 25.5C64.2057 26.5 62.0657 27 59.2457 27H47.9057ZM53.7857 22.71H58.7657C59.7857 22.71 60.5557 22.54 61.0757 22.2C61.6157 21.84 61.8857 21.3 61.8857 20.58C61.8857 19.86 61.6157 19.33 61.0757 18.99C60.5557 18.63 59.7857 18.45 58.7657 18.45H53.3657V14.34H57.8657C58.8657 14.34 59.6157 14.17 60.1157 13.83C60.6157 13.49 60.8657 12.98 60.8657 12.3C60.8657 11.62 60.6157 11.12 60.1157 10.8C59.6157 10.46 58.8657 10.29 57.8657 10.29H53.7857V22.71ZM68.4423 27L77.7123 6H83.5623L92.8623 27H86.6823L79.4223 8.91H81.7623L74.5023 27H68.4423ZM73.5123 22.92L75.0423 18.54H85.3023L86.8323 22.92H73.5123ZM98.5379 27V18.12L99.9179 21.69L90.5279 6H96.7979L103.578 17.37H99.9479L106.758 6H112.518L103.158 21.69L104.478 18.12V27H98.5379ZM110.19 27L119.46 6H125.31L134.61 27H128.43L121.17 8.91H123.51L116.25 27H110.19ZM115.26 22.92L116.79 18.54H127.05L128.58 22.92H115.26Z" fill="white"/>
<path d="M46.4499 37V32.8H48.4179C48.9219 32.8 49.3059 32.9 49.5699 33.1C49.8339 33.296 49.9659 33.56 49.9659 33.892C49.9659 34.116 49.9139 34.308 49.8099 34.468C49.7059 34.624 49.5659 34.746 49.3899 34.834C49.2179 34.918 49.0299 34.96 48.8259 34.96L48.9339 34.744C49.1699 34.744 49.3819 34.788 49.5699 34.876C49.7579 34.96 49.9059 35.084 50.0139 35.248C50.1259 35.412 50.1819 35.616 50.1819 35.86C50.1819 36.22 50.0439 36.5 49.7679 36.7C49.4919 36.9 49.0819 37 48.5379 37H46.4499ZM47.2299 36.388H48.4899C48.7819 36.388 49.0059 36.34 49.1619 36.244C49.3179 36.148 49.3959 35.994 49.3959 35.782C49.3959 35.574 49.3179 35.422 49.1619 35.326C49.0059 35.226 48.7819 35.176 48.4899 35.176H47.1699V34.57H48.3339C48.6059 34.57 48.8139 34.522 48.9579 34.426C49.1059 34.33 49.1799 34.186 49.1799 33.994C49.1799 33.798 49.1059 33.652 48.9579 33.556C48.8139 33.46 48.6059 33.412 48.3339 33.412H47.2299V36.388ZM53.2204 37.06C52.6444 37.06 52.1924 36.898 51.8644 36.574C51.5404 36.25 51.3784 35.782 51.3784 35.17V32.8H52.1584V35.14C52.1584 35.572 52.2504 35.886 52.4344 36.082C52.6224 36.278 52.8864 36.376 53.2264 36.376C53.5664 36.376 53.8284 36.278 54.0124 36.082C54.1964 35.886 54.2884 35.572 54.2884 35.14V32.8H55.0564V35.17C55.0564 35.782 54.8924 36.25 54.5644 36.574C54.2404 36.898 53.7924 37.06 53.2204 37.06ZM56.5488 37V32.8H58.2768C58.6488 32.8 58.9668 32.86 59.2308 32.98C59.4988 33.1 59.7048 33.272 59.8488 33.496C59.9928 33.72 60.0648 33.986 60.0648 34.294C60.0648 34.602 59.9928 34.868 59.8488 35.092C59.7048 35.312 59.4988 35.482 59.2308 35.602C58.9668 35.718 58.6488 35.776 58.2768 35.776H56.9808L57.3288 35.422V37H56.5488ZM59.2968 37L58.2348 35.476H59.0688L60.1368 37H59.2968ZM57.3288 35.506L56.9808 35.134H58.2408C58.5848 35.134 58.8428 35.06 59.0148 34.912C59.1908 34.764 59.2788 34.558 59.2788 34.294C59.2788 34.026 59.1908 33.82 59.0148 33.676C58.8428 33.532 58.5848 33.46 58.2408 33.46H56.9808L57.3288 33.076V35.506ZM62.6394 37.06C62.3114 37.06 61.9974 37.014 61.6974 36.922C61.3974 36.826 61.1594 36.704 60.9834 36.556L61.2534 35.95C61.4214 36.082 61.6294 36.192 61.8774 36.28C62.1254 36.368 62.3794 36.412 62.6394 36.412C62.8594 36.412 63.0374 36.388 63.1734 36.34C63.3094 36.292 63.4094 36.228 63.4734 36.148C63.5374 36.064 63.5694 35.97 63.5694 35.866C63.5694 35.738 63.5234 35.636 63.4314 35.56C63.3394 35.48 63.2194 35.418 63.0714 35.374C62.9274 35.326 62.7654 35.282 62.5854 35.242C62.4094 35.202 62.2314 35.156 62.0514 35.104C61.8754 35.048 61.7134 34.978 61.5654 34.894C61.4214 34.806 61.3034 34.69 61.2114 34.546C61.1194 34.402 61.0734 34.218 61.0734 33.994C61.0734 33.766 61.1334 33.558 61.2534 33.37C61.3774 33.178 61.5634 33.026 61.8114 32.914C62.0634 32.798 62.3814 32.74 62.7654 32.74C63.0174 32.74 63.2674 32.772 63.5154 32.836C63.7634 32.9 63.9794 32.992 64.1634 33.112L63.9174 33.718C63.7294 33.606 63.5354 33.524 63.3354 33.472C63.1354 33.416 62.9434 33.388 62.7594 33.388C62.5434 33.388 62.3674 33.414 62.2314 33.466C62.0994 33.518 62.0014 33.586 61.9374 33.67C61.8774 33.754 61.8474 33.85 61.8474 33.958C61.8474 34.086 61.8914 34.19 61.9794 34.27C62.0714 34.346 62.1894 34.406 62.3334 34.45C62.4814 34.494 62.6454 34.538 62.8254 34.582C63.0054 34.622 63.1834 34.668 63.3594 34.72C63.5394 34.772 63.7014 34.84 63.8454 34.924C63.9934 35.008 64.1114 35.122 64.1994 35.266C64.2914 35.41 64.3374 35.592 64.3374 35.812C64.3374 36.036 64.2754 36.244 64.1514 36.436C64.0314 36.624 63.8454 36.776 63.5934 36.892C63.3414 37.004 63.0234 37.06 62.6394 37.06ZM64.9169 37L66.8069 32.8H67.5749L69.4709 37H68.6549L67.0289 33.214H67.3409L65.7209 37H64.9169ZM65.7869 36.028L65.9969 35.416H68.2649L68.4749 36.028H65.7869ZM71.8692 37L73.7592 32.8H74.5272L76.4232 37H75.6072L73.9812 33.214H74.2932L72.6732 37H71.8692ZM72.7392 36.028L72.9492 35.416H75.2172L75.4272 36.028H72.7392ZM78.0714 34.732H80.1654V35.392H78.0714V34.732ZM78.1374 37H77.3574V32.8H80.4234V33.454H78.1374V37ZM82.2977 34.546H84.3857V35.188H82.2977V34.546ZM82.3577 36.346H84.7277V37H81.5777V32.8H84.6437V33.454H82.3577V36.346ZM86.8492 37V33.46H85.4572V32.8H89.0212V33.46H87.6292V37H86.8492ZM93.0968 37V35.338L93.2708 35.818L91.4468 32.8H92.2808L93.7448 35.23H93.2768L94.7528 32.8H95.5208L93.6968 35.818L93.8768 35.338V37H93.0968ZM98.2179 37.06C97.8899 37.06 97.5879 37.006 97.3119 36.898C97.0359 36.79 96.7959 36.64 96.5919 36.448C96.3879 36.252 96.2299 36.024 96.1179 35.764C96.0059 35.5 95.9499 35.212 95.9499 34.9C95.9499 34.588 96.0059 34.302 96.1179 34.042C96.2299 33.778 96.3879 33.55 96.5919 33.358C96.7959 33.162 97.0359 33.01 97.3119 32.902C97.5879 32.794 97.8879 32.74 98.2119 32.74C98.5399 32.74 98.8399 32.794 99.1119 32.902C99.3879 33.01 99.6279 33.162 99.8319 33.358C100.036 33.55 100.194 33.778 100.306 34.042C100.418 34.302 100.474 34.588 100.474 34.9C100.474 35.212 100.418 35.5 100.306 35.764C100.194 36.028 100.036 36.256 99.8319 36.448C99.6279 36.64 99.3879 36.79 99.1119 36.898C98.8399 37.006 98.5419 37.06 98.2179 37.06ZM98.2119 36.376C98.4239 36.376 98.6199 36.34 98.7999 36.268C98.9799 36.196 99.1359 36.094 99.2679 35.962C99.3999 35.826 99.5019 35.67 99.5739 35.494C99.6499 35.314 99.6879 35.116 99.6879 34.9C99.6879 34.684 99.6499 34.488 99.5739 34.312C99.5019 34.132 99.3999 33.976 99.2679 33.844C99.1359 33.708 98.9799 33.604 98.7999 33.532C98.6199 33.46 98.4239 33.424 98.2119 33.424C97.9999 33.424 97.8039 33.46 97.6239 33.532C97.4479 33.604 97.2919 33.708 97.1559 33.844C97.0239 33.976 96.9199 34.132 96.8439 34.312C96.7719 34.488 96.7359 34.684 96.7359 34.9C96.7359 35.112 96.7719 35.308 96.8439 35.488C96.9199 35.668 97.0239 35.826 97.1559 35.962C97.2879 36.094 97.4439 36.196 97.6239 36.268C97.8039 36.34 97.9999 36.376 98.2119 36.376ZM98.7939 32.392C98.6939 32.392 98.6079 32.36 98.5359 32.296C98.4679 32.228 98.4339 32.14 98.4339 32.032C98.4339 31.924 98.4679 31.836 98.5359 31.768C98.6079 31.7 98.6939 31.666 98.7939 31.666C98.8939 31.666 98.9779 31.7 99.0459 31.768C99.1179 31.836 99.1539 31.924 99.1539 32.032C99.1539 32.14 99.1179 32.228 99.0459 32.296C98.9779 32.36 98.8939 32.392 98.7939 32.392ZM97.6299 32.392C97.5299 32.392 97.4439 32.36 97.3719 32.296C97.3039 32.228 97.2699 32.14 97.2699 32.032C97.2699 31.924 97.3039 31.836 97.3719 31.768C97.4439 31.7 97.5299 31.666 97.6299 31.666C97.7299 31.666 97.8139 31.7 97.8819 31.768C97.9539 31.836 97.9899 31.924 97.9899 32.032C97.9899 32.14 97.9539 32.228 97.8819 32.296C97.8139 32.36 97.7299 32.392 97.6299 32.392ZM101.701 37V32.8H102.343L104.977 36.034H104.659V32.8H105.433V37H104.791L102.157 33.766H102.475V37H101.701ZM107.678 34.546H109.766V35.188H107.678V34.546ZM107.738 36.346H110.108V37H106.958V32.8H110.024V33.454H107.738V36.346ZM112.23 37V33.46H110.838V32.8H114.402V33.46H113.01V37H112.23ZM115.387 37V32.8H116.167V37H115.387ZM115.777 32.386C115.653 32.386 115.551 32.346 115.471 32.266C115.391 32.186 115.351 32.084 115.351 31.96C115.351 31.836 115.391 31.734 115.471 31.654C115.551 31.574 115.653 31.534 115.777 31.534C115.897 31.534 115.997 31.574 116.077 31.654C116.161 31.734 116.203 31.836 116.203 31.96C116.203 32.084 116.161 32.186 116.077 32.266C115.997 32.346 115.897 32.386 115.777 32.386ZM117.703 37V32.8H118.345L120.181 35.866H119.845L121.651 32.8H122.293L122.299 37H121.561L121.555 33.958H121.711L120.175 36.52H119.827L118.267 33.958H118.447V37H117.703ZM125.298 37L127.188 32.8H127.956L129.852 37H129.036L127.41 33.214H127.722L126.102 37H125.298ZM126.168 36.028L126.378 35.416H128.646L128.856 36.028H126.168ZM132.689 37.06C132.361 37.06 132.059 37.008 131.783 36.904C131.511 36.796 131.273 36.646 131.069 36.454C130.865 36.258 130.707 36.028 130.595 35.764C130.483 35.5 130.427 35.212 130.427 34.9C130.427 34.588 130.483 34.3 130.595 34.036C130.707 33.772 130.865 33.544 131.069 33.352C131.277 33.156 131.519 33.006 131.795 32.902C132.071 32.794 132.373 32.74 132.701 32.74C133.057 32.74 133.377 32.798 133.661 32.914C133.949 33.03 134.191 33.2 134.387 33.424L133.895 33.904C133.731 33.74 133.553 33.62 133.361 33.544C133.173 33.464 132.965 33.424 132.737 33.424C132.517 33.424 132.313 33.46 132.125 33.532C131.937 33.604 131.775 33.706 131.639 33.838C131.503 33.97 131.397 34.126 131.321 34.306C131.249 34.486 131.213 34.684 131.213 34.9C131.213 35.112 131.249 35.308 131.321 35.488C131.397 35.668 131.503 35.826 131.639 35.962C131.775 36.094 131.935 36.196 132.119 36.268C132.303 36.34 132.507 36.376 132.731 36.376C132.939 36.376 133.139 36.344 133.331 36.28C133.527 36.212 133.713 36.1 133.889 35.944L134.333 36.526C134.113 36.702 133.857 36.836 133.565 36.928C133.277 37.016 132.985 37.06 132.689 37.06ZM133.595 36.424V34.852H134.333V36.526L133.595 36.424ZM132.647 32.5C132.355 32.5 132.111 32.422 131.915 32.266C131.723 32.11 131.621 31.9 131.609 31.636H132.101C132.109 31.776 132.165 31.886 132.269 31.966C132.373 32.046 132.499 32.086 132.647 32.086C132.795 32.086 132.921 32.046 133.025 31.966C133.133 31.886 133.189 31.776 133.193 31.636H133.685C133.673 31.9 133.569 32.11 133.373 32.266C133.181 32.422 132.939 32.5 132.647 32.5ZM135.762 37V32.8H136.542V37H135.762Z" fill="white"/>
</svg>
