<svg width="32" height="54" viewBox="0 0 32 54" fill="none" xmlns="http://www.w3.org/2000/svg">
<ellipse opacity="0.3" cx="16.3051" cy="41.6807" rx="11.509" ry="12" fill="#A6151C"/>
<ellipse cx="16.1109" cy="16.6807" rx="15.3453" ry="16" fill="#A6151C"/>
<path d="M18.0546 38.5208C17.2933 39.8957 15.3165 39.8957 14.5552 38.5208L11.3041 32.6495C10.566 31.3165 11.5301 29.6807 13.0538 29.6807L19.556 29.6807C21.0797 29.6807 22.0438 31.3165 21.3057 32.6495L18.0546 38.5208Z" fill="#A6151C"/>
<path d="M15.9775 17.7532C16.2847 17.7532 16.589 17.6927 16.8729 17.5751C17.1568 17.4575 17.4148 17.2852 17.6321 17.0679C17.8494 16.8506 18.0217 16.5926 18.1393 16.3087C18.2569 16.0248 18.3175 15.7205 18.3175 15.4132C18.3175 15.1059 18.2569 14.8017 18.1393 14.5178C18.0217 14.2339 17.8494 13.9759 17.6321 13.7586C17.4148 13.5413 17.1568 13.369 16.8729 13.2514C16.589 13.1338 16.2847 13.0732 15.9775 13.0732C15.3568 13.0732 14.7617 13.3198 14.3228 13.7586C13.884 14.1974 13.6375 14.7926 13.6375 15.4132C13.6375 16.0338 13.884 16.629 14.3228 17.0679C14.7617 17.5067 15.3568 17.7532 15.9775 17.7532Z" stroke="white" stroke-width="1.5"/>
<path d="M9.69256 14.0482C11.1701 7.55317 20.7926 7.56067 22.2626 14.0557C23.1251 17.8657 20.7551 21.0907 18.6776 23.0857C17.9516 23.7858 16.9824 24.1771 15.9738 24.1771C14.9652 24.1771 13.996 23.7858 13.2701 23.0857C11.2001 21.0907 8.83007 17.8582 9.69256 14.0482Z" stroke="white" stroke-width="1.5"/>
</svg>
